<?xml version="1.0" encoding="UTF-8" standalone="no"?>
<!-- Created with Inkscape (http://www.inkscape.org/) -->

<svg
   width="295.04883"
   height="263.69727"
   viewBox="0 0 78.065001 69.769901"
   version="1.1"
   id="svg5"
   sodipodi:docname="osonwacom.svg"
   inkscape:version="1.2.2 (732a01da63, 2022-12-09, custom)"
   xmlns:inkscape="http://www.inkscape.org/namespaces/inkscape"
   xmlns:sodipodi="http://sodipodi.sourceforge.net/DTD/sodipodi-0.dtd"
   xmlns="http://www.w3.org/2000/svg"
   xmlns:svg="http://www.w3.org/2000/svg">
  <sodipodi:namedview
     id="namedview7"
     pagecolor="#ffffff"
     bordercolor="#999999"
     borderopacity="1"
     inkscape:showpageshadow="0"
     inkscape:pageopacity="0"
     inkscape:pagecheckerboard="0"
     inkscape:deskcolor="#d1d1d1"
     inkscape:document-units="mm"
     showgrid="false"
     inkscape:zoom="0.49841485"
     inkscape:cx="-93.295775"
     inkscape:cy="137.43571"
     inkscape:window-width="1294"
     inkscape:window-height="704"
     inkscape:window-x="72"
     inkscape:window-y="27"
     inkscape:window-maximized="1"
     inkscape:current-layer="layer1" />
  <defs
     id="defs2" />
  <g
     inkscape:label="Layer 1"
     inkscape:groupmode="layer"
     id="layer1"
     transform="translate(-60.246969,-38.219889)">
    <path
       id="path1745"
       style="fill:#000000;fill-opacity:1;stroke-width:2.64599;stroke-linecap:round;stop-color:#000000"
       d="m 99.423905,38.219889 c -19.903791,2e-6 -36.039117,15.61846 -36.039143,34.884693 0.01058,5.724919 1.476418,11.359456 4.268473,16.406233 l -7.406266,4.057634 5.028633,9.177731 14.812533,-8.11578 A 29.047674,29.047674 0 0 1 73.6446,86.227812 l -0.02377,0.01292 C 71.499939,82.248 70.372687,77.751248 70.367282,73.104583 c 1.35e-4,-15.53332 13.009275,-28.125541 29.056624,-28.125415 4.839804,5.67e-4 9.602834,1.171343 13.856514,3.405993 l 3.95894,-5.596041 c -5.42898,-2.991982 -11.56824,-4.566556 -17.815454,-4.56923 z m 34.509525,3.163115 -17.85421,8.223787 0.0455,0.0987 v 5.17e-4 a 29.047674,29.047674 0 0 1 0.84026,0.627352 29.047674,29.047674 0 0 1 0.0698,0.05426 29.047674,29.047674 0 0 1 0.82785,0.66766 29.047674,29.047674 0 0 1 0.79065,0.689363 29.047674,29.047674 0 0 1 0.0667,0.06046 29.047674,29.047674 0 0 1 1.50585,1.471228 29.047674,29.047674 0 0 1 0.0749,0.07906 29.047674,29.047674 0 0 1 1.37614,1.564245 29.047674,29.047674 0 0 1 0.0853,0.10542 29.047674,29.047674 0 0 1 1.24075,1.647962 29.047674,29.047674 0 0 1 0.0827,0.118339 29.047674,29.047674 0 0 1 0.56689,0.84956 l 0.005,-0.0021 a 29.056389,28.125652 0 0 1 4.8225,15.465765 A 29.056389,28.125652 0 0 1 99.423905,101.23051 29.056389,28.125652 0 0 1 85.56687,97.825037 l -3.958415,5.595523 a 36.039146,34.884739 0 0 0 17.81545,4.56923 36.039146,34.884739 0 0 0 36.039145,-34.885208 36.039146,34.884739 0 0 0 -5.456,-18.390609 l 8.30492,-3.825606 z m -15.72101,10.298079 -5.1e-4,5.17e-4 a 29.056389,28.125652 0 0 1 0.1819,0.160197 29.047674,29.047674 0 0 0 -0.0667,-0.06046 29.047674,29.047674 0 0 0 -0.11472,-0.100252 z" />
  </g>
</svg>
